# Blender v3.5.1 OBJ File: 'cubopasto.blend'
# www.blender.org
mtllib cubo_sinfondo.mtl
g cubo_sinfondo_Cube
v -1.000000 1.000000 -1.000000
v 1.000000 1.000000 -1.000000
v -1.000000 1.000000 1.000000
v 1.000000 1.000000 1.000000
v -1.000000 -1.000000 -1.000000
v 1.000000 -1.000000 -1.000000
v -1.000000 -1.000000 1.000000
v 1.000000 -1.000000 1.000000
vt 0.666667 0.333333
vt 1.000000 0.333333
vt 1.000000 0.666667
vt 0.666667 0.666667
vt 0.333333 0.666667
vt 0.666667 1.000000
vt 0.333333 1.000000
vt 0.000000 0.333333
vt 0.333333 0.333333
vt 0.000000 0.666667
vt 0.333333 0.000000
vt 0.666667 0.000000
vn -1.0000 0.0000 0.0000
vn -0.0000 0.0000 1.0000
vn 1.0000 -0.0000 0.0000
vn 0.0000 1.0000 0.0000
vn 0.0000 0.0000 -1.0000
usemtl Material
s off
f 1/1/1 5/2/1 7/3/1 3/4/1
f 4/5/2 3/4/2 7/6/2 8/7/2
f 6/8/3 2/9/3 4/5/3 8/10/3
f 2/9/4 1/1/4 3/4/4 4/5/4
f 6/11/5 5/12/5 1/1/5 2/9/5
